HIERARCHY
ROOT Hips
{
	OFFSET -0.179506 -22.333345 2.821913
	CHANNELS 6 Xposition Yposition Zposition Zrotation Yrotation Xrotation 
	JOINT LeftUpLeg
	{
		OFFSET 6.951974 -9.140623 -0.681533
		CHANNELS 3 Zrotation Yrotation Xrotation
		JOINT LeftLeg
		{
			OFFSET 3.427654 -37.519855 -0.449580
			CHANNELS 3 Zrotation Yrotation Xrotation
			JOINT LeftFoot
			{
				OFFSET -1.359570 -39.796059 -4.369333
				CHANNELS 3 Zrotation Yrotation Xrotation
				JOINT LeftToe
				{
					OFFSET 2.635814 -5.579078 11.928840
					CHANNELS 3 Zrotation Yrotation Xrotation
					End Site
					{
						OFFSET 0.000000 0.000000 0.000000
					}
				}
			}
		}
	}
	JOINT RightUpLeg
	{
		OFFSET -6.767048 -9.052170 -0.431982
		CHANNELS 3 Zrotation Yrotation Xrotation
		JOINT RightLeg
		{
			OFFSET -3.829005 -38.256897 -0.885003
			CHANNELS 3 Zrotation Yrotation Xrotation
			JOINT RightFoot
			{
				OFFSET 1.577377 -39.841461 -4.231180
				CHANNELS 3 Zrotation Yrotation Xrotation
				JOINT RightToe
				{
					OFFSET -2.537174 -4.814398 12.334795
					CHANNELS 3 Zrotation Yrotation Xrotation
					End Site
					{
						OFFSET 0.000000 0.000000 0.000000
					}
				}
			}
		}
	}
	JOINT Spine
	{
		OFFSET -0.253288 10.896323 -2.669631
		CHANNELS 3 Zrotation Yrotation Xrotation
		JOINT Spine1
		{
			OFFSET 0.548704 13.518043 0.109247
			CHANNELS 3 Zrotation Yrotation Xrotation
			JOINT Spine2
			{
				OFFSET 0.145701 5.292222 2.542457
				CHANNELS 3 Zrotation Yrotation Xrotation
				JOINT Neck
				{
					OFFSET -0.277840 21.387037 -4.285703
					CHANNELS 3 Zrotation Yrotation Xrotation
					JOINT Head
					{
						OFFSET 0.515184 6.496960 5.134897
						CHANNELS 3 Zrotation Yrotation Xrotation
						End Site
						{
							OFFSET 0.000000 0.000000 0.000000
						}
					}
				}
				JOINT LeftShoulder
				{
					OFFSET 7.884473 12.174932 -3.408961
					CHANNELS 3 Zrotation Yrotation Xrotation
					JOINT LeftArm
					{
						OFFSET 9.097692 3.046888 -0.886815
						CHANNELS 3 Zrotation Yrotation Xrotation
						JOINT LeftForeArm
						{
							OFFSET 25.961220 -1.277207 -2.745643
							CHANNELS 3 Zrotation Yrotation Xrotation
							JOINT LeftHand
							{
								OFFSET 24.923361 0.898606 -0.117091
								CHANNELS 3 Zrotation Yrotation Xrotation
								End Site
								{
									OFFSET 0.000000 0.000000 0.000000
								}
							}
						}
					}
				}
				JOINT RightShoulder
				{
					OFFSET -8.175920 11.883285 -3.861528
					CHANNELS 3 Zrotation Yrotation Xrotation
					JOINT RightArm
					{
						OFFSET -9.601238 3.255117 -0.914307
						CHANNELS 3 Zrotation Yrotation Xrotation
						JOINT RightForeArm
						{
							OFFSET -25.374195 -1.332924 -2.140099
							CHANNELS 3 Zrotation Yrotation Xrotation
							JOINT RightHand
							{
								OFFSET -25.529810 0.777228 -0.555919
								CHANNELS 3 Zrotation Yrotation Xrotation
								End Site
								{
									OFFSET 0.000000 0.000000 0.000000
								}
							}
						}
					}
				}
			}
		}
	}
}
MOTION
Frames: 7
Frame Time: 0.033333
-0.179506 104.190857 2.821913 -82.691749 86.778016 -86.091020 7.080486 6.609259 8.027071 -0.287269 0.694631 1.758434 2.405750 14.894739 -16.627655 0.896211 -0.885991 -0.527314 -13.548691 -4.789097 1.103966 -0.091794 -1.481705 6.059492 7.991690 -6.010804 -5.544896 1.620542 0.139628 -0.895818 -2.313835 0.691299 3.269693 3.038110 -3.731836 3.156274 -0.429549 -1.237374 2.632274 0.909493 4.451626 2.085270 1.533023 3.587899 -7.718059 -23.596588 -2.677941 -1.087279 -49.528707 -12.722838 15.510463 -0.655095 -26.378265 8.621800 -10.247734 -12.221013 -0.671809 24.502041 2.746841 -1.138527 50.281163 2.708977 15.802306 -2.736495 26.783933 2.376058 11.679058 9.578493 -3.237764 
-0.127075 104.220535 2.662448 -78.826341 86.699254 -82.294228 6.983385 6.526868 8.248573 -0.273303 0.565614 1.634123 2.423738 15.177577 -16.597397 0.937250 -0.911294 -0.525228 -13.662872 -4.841906 1.361709 -0.003515 -1.144361 5.615218 8.169501 -6.037105 -5.127962 1.671417 0.163267 -0.866758 -2.268966 0.818797 2.955536 3.005973 -3.634903 3.189703 -0.526938 -1.198942 2.592863 0.966339 4.251836 2.219308 1.622382 3.498618 -7.231218 -23.697756 -2.605335 -1.196097 -49.420501 -12.706310 15.563971 -0.788550 -26.167792 8.361923 -9.994556 -12.227238 -0.576601 24.513521 2.642846 -1.261421 50.072527 2.725297 15.615140 -2.870659 26.565061 1.703558 11.115067 9.446461 -3.198776 
-0.048946 104.229065 2.660340 -72.403574 86.636681 -75.884662 6.917667 6.511054 8.292461 -0.285614 0.501607 1.806536 2.378028 15.517579 -16.623930 0.966938 -0.936121 -0.524088 -13.716619 -4.842357 1.385630 0.019536 -0.880868 5.435172 8.271211 -5.940362 -5.066644 1.684813 0.178169 -0.860447 -2.240742 0.929395 2.872756 2.945330 -3.533219 3.219437 -0.610371 -1.151240 2.537688 1.053805 4.248621 2.308240 1.618390 3.505959 -7.150561 -23.637289 -2.518507 -1.303679 -49.100928 -12.586380 15.458674 -0.679699 -25.937413 7.761588 -9.689418 -12.243561 -0.563614 24.258581 2.583253 -1.491741 49.589676 2.991641 15.111571 -3.431651 26.644564 0.390154 10.239161 9.391499 -3.615259 
0.090304 104.246002 2.785972 -64.615546 86.614820 -68.025209 6.842461 6.488785 8.350601 -0.377956 0.426821 1.876244 2.260149 15.891574 -16.485200 0.992010 -0.956507 -0.534758 -13.795086 -4.734460 1.234955 0.035906 -0.558942 5.459773 8.286696 -5.902810 -5.227385 1.681610 0.192146 -0.856427 -2.186364 0.926817 2.979476 2.778947 -3.449867 3.119135 -0.653927 -1.171385 2.558112 1.182033 4.386042 2.224905 1.494309 3.545569 -7.164141 -23.333966 -2.460206 -1.393596 -48.690721 -12.379329 15.280532 -0.508619 -25.340941 7.042334 -9.337092 -12.169794 -0.816040 23.594441 2.507316 -1.898419 48.918131 3.455292 14.332633 -4.704249 27.323210 -1.707100 9.216754 9.233173 -4.909721 
0.405955 104.272644 2.807893 -55.649531 86.413834 -58.791099 6.746316 6.402062 8.142001 -0.541542 0.295256 2.336242 2.186735 16.414865 -16.430472 0.977088 -0.950928 -0.526246 -13.807931 -4.456861 0.810433 -0.048739 -0.026292 5.719355 8.251247 -6.002384 -5.265772 1.687273 0.155089 -0.870349 -1.989994 0.711294 3.625614 2.421489 -3.283686 2.560483 -0.586395 -1.376371 2.755486 1.198189 4.414355 1.743152 1.262057 4.055740 -7.438840 -22.712245 -2.343137 -1.436775 -48.520012 -11.952602 14.987770 -0.182057 -24.854869 6.437432 -8.313936 -12.112850 -1.627260 22.233200 2.389298 -2.486423 48.335138 3.929764 13.234070 -6.825406 29.239024 -4.896686 7.635354 9.270024 -7.666160 
0.786822 104.301872 2.531675 -46.057400 85.432654 -48.868229 6.840963 6.318970 7.790879 -0.684997 0.329510 3.257866 2.092073 17.145576 -16.797200 0.825905 -0.892658 -0.447305 -13.596017 -4.352377 -0.088375 -0.071699 0.348439 6.341441 8.540690 -5.637653 -4.786345 1.521134 0.006910 -1.010246 -1.579193 0.419468 4.588756 2.041485 -3.141734 1.447853 -0.389085 -1.657988 3.249204 0.960181 5.009246 0.771336 1.075191 4.962523 -6.816479 -21.680781 -2.792062 -1.493618 -48.605629 -11.240564 14.951900 0.250929 -24.363282 6.218069 -7.041828 -12.289028 -2.845397 20.863907 2.826921 -2.750117 47.311684 3.694308 12.110368 -10.621162 33.539619 -8.510278 4.884915 9.202231 -11.200331 
0.070376 104.341560 2.553432 -33.453208 83.672235 -36.192579 6.702775 6.646572 6.943807 -0.403649 1.345721 4.406091 2.292199 17.962914 -16.850208 0.774615 -0.815125 -0.338543 -13.144156 -3.809902 -1.975027 -0.134307 0.991101 7.302134 8.851441 -5.178490 -4.499492 1.519693 -0.019456 -0.992260 -0.996080 -0.149413 6.261341 1.820318 -3.223449 0.362165 -0.055462 -1.992318 3.876560 0.443277 6.185671 0.082033 0.483543 6.405985 -7.098866 -20.898196 -3.828902 -1.488616 -49.911450 -11.242076 15.270295 -0.782701 -23.406393 8.481432 -5.648380 -11.820904 -2.208645 19.638067 3.199982 -2.928888 47.711603 4.143387 12.097287 -11.685015 36.911918 -9.368404 2.776290 9.134759 -12.550670 
